<?xml version="1.0" encoding="utf-8"?>
<!-- Generator: Adobe Illustrator 23.0.3, SVG Export Plug-In . SVG Version: 6.00 Build 0)  -->
<svg version="1.1" id="Layer_1" xmlns="http://www.w3.org/2000/svg" xmlns:xlink="http://www.w3.org/1999/xlink" x="0px" y="0px"
	 viewBox="0 0 36 36" style="enable-background:new 0 0 36 36;" xml:space="preserve">
<style type="text/css">
	.st0{fill:hsl(90,55%,55%);}
</style>
<g>
	<circle class="st0" cx="9" cy="9" r="8.5"/>
	<path d="M9,1c4.41,0,8,3.59,8,8s-3.59,8-8,8s-8-3.59-8-8S4.59,1,9,1 M9,0C4.03,0,0,4.03,0,9s4.03,9,9,9s9-4.03,9-9S13.97,0,9,0L9,0
		z"/>
</g>
<g>
	<circle class="st0" cx="9" cy="18" r="8.5"/>
	<path d="M9,10c4.41,0,8,3.59,8,8s-3.59,8-8,8s-8-3.59-8-8S4.59,10,9,10 M9,9c-4.97,0-9,4.03-9,9s4.03,9,9,9s9-4.03,9-9S13.97,9,9,9
		L9,9z"/>
</g>
<g>
	<circle class="st0" cx="22.5" cy="22.5" r="13"/>
	<path d="M22.5,10C29.39,10,35,15.61,35,22.5S29.39,35,22.5,35S10,29.39,10,22.5S15.61,10,22.5,10 M22.5,9C15.04,9,9,15.04,9,22.5
		S15.04,36,22.5,36S36,29.96,36,22.5S29.96,9,22.5,9L22.5,9z"/>
</g>
<g>
	<circle class="st0" cx="31.26" cy="4.71" r="4"/>
	<path d="M31.26,1.21c1.93,0,3.5,1.57,3.5,3.5s-1.57,3.5-3.5,3.5s-3.5-1.57-3.5-3.5S29.33,1.21,31.26,1.21 M31.26,0.21
		c-2.49,0-4.5,2.01-4.5,4.5s2.01,4.5,4.5,4.5s4.5-2.01,4.5-4.5S33.75,0.21,31.26,0.21L31.26,0.21z"/>
</g>
<g>
	<circle class="st0" cx="23.65" cy="10.6" r="8.5"/>
	<path d="M23.65,2.6c4.41,0,8,3.59,8,8s-3.59,8-8,8s-8-3.59-8-8S19.24,2.6,23.65,2.6 M23.65,1.6c-4.97,0-9,4.03-9,9s4.03,9,9,9
		s9-4.03,9-9S28.62,1.6,23.65,1.6L23.65,1.6z"/>
</g>
</svg>
